<?xml version="1.0" encoding="UTF-8" standalone="no"?>
<!-- Generator: Adobe Illustrator 19.0.0, SVG Export Plug-In . SVG Version: 6.00 Build 0)  -->

<svg
   xmlns:dc="http://purl.org/dc/elements/1.1/"
   xmlns:cc="http://creativecommons.org/ns#"
   xmlns:rdf="http://www.w3.org/1999/02/22-rdf-syntax-ns#"
   xmlns:svg="http://www.w3.org/2000/svg"
   xmlns="http://www.w3.org/2000/svg"
   xmlns:sodipodi="http://sodipodi.sourceforge.net/DTD/sodipodi-0.dtd"
   xmlns:inkscape="http://www.inkscape.org/namespaces/inkscape"
   version="1.1"
   id="Layer_1"
   x="0px"
   y="0px"
   viewBox="0 0 496.8 496.8"
   style="enable-background:new 0 0 496.8 496.8;"
   xml:space="preserve"
   sodipodi:docname="conflip_disconnected.svg"
   inkscape:version="0.92.1 r"><metadata
     id="metadata51"><rdf:RDF><cc:Work
         rdf:about=""><dc:format>image/svg+xml</dc:format><dc:type
           rdf:resource="http://purl.org/dc/dcmitype/StillImage" /><dc:title></dc:title></cc:Work></rdf:RDF></metadata><defs
     id="defs49" /><sodipodi:namedview
     pagecolor="#ffffff"
     bordercolor="#666666"
     borderopacity="1"
     objecttolerance="10"
     gridtolerance="10"
     guidetolerance="10"
     inkscape:pageopacity="0"
     inkscape:pageshadow="2"
     inkscape:window-width="1920"
     inkscape:window-height="1006"
     id="namedview47"
     showgrid="false"
     inkscape:zoom="0.95008054"
     inkscape:cx="220.02544"
     inkscape:cy="142.49187"
     inkscape:window-x="0"
     inkscape:window-y="0"
     inkscape:window-maximized="1"
     inkscape:current-layer="Layer_1" /><path
     style="fill:#806600"
     d="M114,12c26.4,12.8,46.4,36.8,55.2,65.6c56.8-24,120.8-27.2,177.6-3.2C333.2,32,293.2,0,246,0h-85.6  C143.6,0,128.4,5.6,114,12z"
     id="path2" /><path
     style="fill:#aa8800"
     d="M360.4,136l88,88.8v164.8c0,58.4-48.8,106.4-107.2,106.4h-85.6c-16.8,0-31.2-4-44.8-11.2  c35.2-17.6,61.6-53.6,61.6-96V288l0,0v-63.2L360.4,136z"
     id="path8" /><path
     style="fill:#806600"
     d="M448.4,389.6c0,58.4-48.8,106.4-107.2,106.4h-85.6c-16.8,0-31.2-4-44.8-11.2  c35.2-17.6,61.6-53.6,61.6-96V288l0,0v-56"
     id="path10" /><g
     id="g16" /><g
     id="g18" /><g
     id="g20" /><g
     id="g22" /><g
     id="g24" /><g
     id="g26" /><g
     id="g28" /><g
     id="g30" /><g
     id="g32" /><g
     id="g34" /><g
     id="g36" /><g
     id="g38" /><g
     id="g40" /><g
     id="g42" /><g
     id="g44" /><g
     id="g114"
     transform="matrix(0.85937413,0,0,0.85937581,28.000652,28.80064)"><path
       id="path53"
       d="m 466.471,255.999 c -1.137,-26.602 14.461,-51.088 39.061,-61.281 4.612,-1.287 7.354,-6.022 6.172,-10.669 -5.608,-20.13 -13.596,-39.52 -23.807,-57.754 -2.354,-4.109 -7.53,-5.625 -11.727,-3.439 -24.618,10.263 -53.019,4.021 -71.068,-15.607 -19.76,-17.961 -26.135,-46.38 -15.96,-71.068 2.187,-4.197 0.67,-9.373 -3.439,-11.727 C 367.486,14.12 348.097,6.017 327.949,0.294 323.382,-0.914 318.682,1.696 317.28,6.202 307.167,30.9 282.672,46.63 255.999,45.528 229.397,46.665 204.911,31.067 194.718,6.467 c -1.287,-4.612 -6.022,-7.354 -10.669,-6.172 -20.13,5.608 -39.52,13.596 -57.754,23.807 -4.109,2.354 -5.625,7.53 -3.439,11.727 10.263,24.618 4.021,53.019 -15.607,71.068 -17.961,19.76 -46.38,26.135 -71.068,15.959 -4.197,-2.187 -9.373,-0.67 -11.727,3.439 -10.334,18.217 -18.437,37.606 -24.16,57.754 -1.208,4.567 1.402,9.267 5.908,10.669 24.698,10.114 40.428,34.608 39.326,61.281 1.137,26.602 -14.461,51.088 -39.061,61.281 -4.612,1.287 -7.354,6.022 -6.172,10.669 5.608,20.13 13.596,39.52 23.807,57.754 2.354,4.109 7.53,5.626 11.727,3.439 24.618,-10.263 53.019,-4.021 71.068,15.607 19.628,18.049 25.87,46.45 15.607,71.068 -2.187,4.197 -0.67,9.373 3.439,11.727 18.331,10.352 37.835,18.464 58.107,24.16 4.567,1.208 9.267,-1.402 10.669,-5.908 10.114,-24.698 34.608,-40.428 61.281,-39.326 26.602,-1.137 51.088,14.461 61.281,39.061 1.402,4.506 6.102,7.116 10.669,5.908 20.13,-5.608 39.52,-13.596 57.754,-23.807 4.109,-2.354 5.626,-7.53 3.439,-11.727 -12.847,-35.023 5.123,-73.828 40.137,-86.675 15.025,-5.511 31.513,-5.511 46.538,0 4.197,2.187 9.373,0.67 11.727,-3.439 10.334,-18.243 18.446,-37.668 24.16,-57.842 1.208,-4.567 -1.402,-9.267 -5.908,-10.669 -24.698,-10.113 -40.42,-34.608 -39.326,-61.281 z"
       style="fill:#7f8c8d"
       inkscape:connector-curvature="0" /><path
       id="path55"
       d="m 255.999,405.895 c -82.787,0 -149.896,-67.109 -149.896,-149.896 0,-82.787 67.109,-149.896 149.896,-149.896 82.787,0 149.896,67.109 149.896,149.896 0,82.787 -67.109,149.896 -149.896,149.896 z"
       style="fill:#95a5a5"
       inkscape:connector-curvature="0" /><path
       id="path57"
       d="m 335.356,255.999 c 0,43.831 -35.525,79.357 -79.357,79.357 -43.832,0 -79.357,-35.525 -79.357,-79.357 0,-43.832 35.525,-79.357 79.357,-79.357 43.832,0 79.357,35.535 79.357,79.357 z"
       style="fill:#5e5f62"
       inkscape:connector-curvature="0" /><g
       id="g59" /><g
       id="g61" /><g
       id="g63" /><g
       id="g65" /><g
       id="g67" /><g
       id="g69" /><g
       id="g71" /><g
       id="g73" /><g
       id="g75" /><g
       id="g77" /><g
       id="g79" /><g
       id="g81" /><g
       id="g83" /><g
       id="g85" /><g
       id="g87" /></g><path
     style="fill:#ffcc00"
     d="M387.6,485.6c-26.4-12.8-52-38.4-60-66.4c-56.8,24-120.8,26.4-177.6,2.4  c13.6,42.4,54.4,75.2,101.6,75.2h89.6C358,496,374,492,387.6,485.6z"
     id="path12" /><path
     style="fill:#d4aa00"
     d="M251.6,496h89.6c16.8,0,32.8-4,46.4-11.2c-26.4-12.8-52-38.4-60-66.4"
     id="path14" /><path
     style="fill:#ffcc00"
     d="M136.4,360l-88-88.8V106.4C48.4,48,97.2,0,155.6,0h85.6C258,0,272.4,4,286,11.2  C250.8,28,224.4,64,224.4,106.4V208l0,0v63.2L136.4,360z"
     id="path4" /><path
     style="fill:#d4aa00"
     d="M152.4,0h88.8C258,0,272.4,0.8,290,9.6c-36,17.6-65.6,54.4-65.6,96.8V208l0,0v63.2l-88,88.8l-88-88.8  "
     id="path6" /></svg>